<?xml version="1.0" encoding="UTF-8" standalone="no"?>
<!DOCTYPE svg PUBLIC "-//W3C//DTD SVG 1.1//EN"
 "http://www.w3.org/Graphics/SVG/1.1/DTD/svg11.dtd">
<!-- Generated by graphviz version 2.30.1 (20130221.2233)
 -->
<!-- Title: G Pages: 1 -->
<svg width="574pt" height="700pt"
 viewBox="0.00 0.00 574.00 700.00" xmlns="http://www.w3.org/2000/svg" xmlns:xlink="http://www.w3.org/1999/xlink">
<g id="graph0" class="graph" transform="scale(1 1) rotate(0) translate(4 696)">
<title>G</title>
<polygon fill="white" stroke="white" points="-4,5 -4,-696 571,-696 571,5 -4,5"/>
<g id="clust1" class="cluster"><title>cluster_Global</title>
<path fill="none" stroke="gray" d="M170,-98C170,-98 546,-98 546,-98 552,-98 558,-104 558,-110 558,-110 558,-672 558,-672 558,-678 552,-684 546,-684 546,-684 170,-684 170,-684 164,-684 158,-678 158,-672 158,-672 158,-110 158,-110 158,-104 164,-98 170,-98"/>
<text text-anchor="middle" x="358" y="-671.2" font-family="Times,serif" font-size="11.00" fill="gray">\</text>
</g>
<g id="clust2" class="cluster"><title>cluster_\Devbin</title>
<path fill="none" stroke="gray" d="M178,-106C178,-106 538,-106 538,-106 544,-106 550,-112 550,-118 550,-118 550,-644 550,-644 550,-650 544,-656 538,-656 538,-656 178,-656 178,-656 172,-656 166,-650 166,-644 166,-644 166,-118 166,-118 166,-112 172,-106 178,-106"/>
<text text-anchor="middle" x="358" y="-643.2" font-family="Times,serif" font-size="11.00" fill="gray">Devbin</text>
</g>
<g id="clust3" class="cluster"><title>cluster_\Devbin\libs</title>
<path fill="none" stroke="gray" d="M186,-114C186,-114 530,-114 530,-114 536,-114 542,-120 542,-126 542,-126 542,-616 542,-616 542,-622 536,-628 530,-628 530,-628 186,-628 186,-628 180,-628 174,-622 174,-616 174,-616 174,-126 174,-126 174,-120 180,-114 186,-114"/>
<text text-anchor="middle" x="358" y="-615.2" font-family="Times,serif" font-size="11.00" fill="gray">libs</text>
</g>
<g id="clust4" class="cluster"><title>cluster_\Devbin\libs\ToObject</title>
<path fill="none" stroke="gray" d="M194,-122C194,-122 522,-122 522,-122 528,-122 534,-128 534,-134 534,-134 534,-588 534,-588 534,-594 528,-600 522,-600 522,-600 194,-600 194,-600 188,-600 182,-594 182,-588 182,-588 182,-134 182,-134 182,-128 188,-122 194,-122"/>
<text text-anchor="middle" x="358" y="-587.2" font-family="Times,serif" font-size="11.00" fill="gray">ToObject</text>
</g>
<g id="clust5" class="cluster"><title>cluster_\Devbin\libs\ToObject\Utils</title>
<path fill="none" stroke="gray" d="M372,-500C372,-500 514,-500 514,-500 520,-500 526,-506 526,-512 526,-512 526,-560 526,-560 526,-566 520,-572 514,-572 514,-572 372,-572 372,-572 366,-572 360,-566 360,-560 360,-560 360,-512 360,-512 360,-506 366,-500 372,-500"/>
<text text-anchor="middle" x="443" y="-559.2" font-family="Times,serif" font-size="11.00" fill="gray">Utils</text>
</g>
<!-- \\Devbin\\libs\\ToObject\\Utils\\EnumerableReflection -->
<g id="node1" class="node"><title>\\Devbin\\libs\\ToObject\\Utils\\EnumerableReflection</title>
<polygon fill="none" stroke="black" points="518,-544 368,-544 368,-508 518,-508 518,-544"/>
<text text-anchor="start" x="409.5" y="-529.7" font-family="Courier,monospace" font-size="11.00">«abstract»</text>
<text text-anchor="start" x="376.5" y="-518.7" font-family="Courier,monospace" font-size="11.00">EnumerableReflection</text>
</g>
<!-- \\Devbin\\libs\\ToObject\\ArrayClass -->
<g id="node2" class="node"><title>\\Devbin\\libs\\ToObject\\ArrayClass</title>
<polygon fill="none" stroke="black" points="484.5,-382 401.5,-382 401.5,-346 484.5,-346 484.5,-382"/>
<text text-anchor="middle" x="443" y="-361.2" font-family="Courier,monospace" font-size="11.00">ArrayClass</text>
</g>
<!-- \\Devbin\\libs\\ToObject\\ObjectClass -->
<g id="node4" class="node"><title>\\Devbin\\libs\\ToObject\\ObjectClass</title>
<polygon fill="none" stroke="black" points="280,-436 190,-436 190,-400 280,-400 280,-436"/>
<text text-anchor="start" x="201.5" y="-421.7" font-family="Courier,monospace" font-size="11.00">«abstract»</text>
<text text-anchor="start" x="198.5" y="-410.7" font-family="Courier,monospace" font-size="11.00">ObjectClass</text>
</g>
<!-- \\Devbin\\libs\\ToObject\\ArrayClass&#45;&gt;\\Devbin\\libs\\ToObject\\ObjectClass -->
<g id="edge1" class="edge"><title>\\Devbin\\libs\\ToObject\\ArrayClass&#45;&gt;\\Devbin\\libs\\ToObject\\ObjectClass</title>
<path fill="none" stroke="black" d="M401.301,-374.669C369.498,-383.005 325.002,-394.669 290.186,-403.796"/>
<polygon fill="none" stroke="black" points="288.966,-400.497 280.18,-406.419 290.741,-407.269 288.966,-400.497"/>
</g>
<!-- \\Iterator -->
<g id="node11" class="node"><title>\\Iterator</title>
<ellipse fill="none" stroke="black" cx="235" cy="-18" rx="40.0939" ry="18"/>
<text text-anchor="middle" x="235" y="-14.3" font-family="Times,serif" font-size="14.00" fill="gray">\Iterator</text>
</g>
<!-- \\Devbin\\libs\\ToObject\\ArrayClass&#45;&gt;\\Iterator -->
<g id="edge2" class="edge"><title>\\Devbin\\libs\\ToObject\\ArrayClass&#45;&gt;\\Iterator</title>
<path fill="none" stroke="black" stroke-dasharray="1,5" d="M401.498,-359.201C386.533,-355.45 370.645,-348.794 360,-337 270.982,-238.374 379.732,-148.152 296,-45 291.55,-39.518 285.751,-35.1093 279.514,-31.575"/>
<polygon fill="none" stroke="black" points="280.689,-28.2532 270.168,-26.9995 277.611,-34.5402 280.689,-28.2532"/>
</g>
<!-- \\ArrayAccess -->
<g id="node12" class="node"><title>\\ArrayAccess</title>
<ellipse fill="none" stroke="black" cx="235" cy="-72" rx="60.3893" ry="18"/>
<text text-anchor="middle" x="235" y="-68.3" font-family="Times,serif" font-size="14.00" fill="gray">\ArrayAccess</text>
</g>
<!-- \\Devbin\\libs\\ToObject\\ArrayClass&#45;&gt;\\ArrayAccess -->
<g id="edge3" class="edge"><title>\\Devbin\\libs\\ToObject\\ArrayClass&#45;&gt;\\ArrayAccess</title>
<path fill="none" stroke="black" stroke-dasharray="1,5" d="M401.485,-358.71C386.699,-354.889 370.939,-348.314 360,-337 289.517,-264.096 353.301,-201.663 296,-118 289.761,-108.891 281.144,-100.801 272.386,-94.0449"/>
<polygon fill="none" stroke="black" points="274.17,-91.0159 264.018,-87.986 270.065,-96.6857 274.17,-91.0159"/>
</g>
<!-- \\Devbin\\libs\\ToObject\\HashClass -->
<g id="node3" class="node"><title>\\Devbin\\libs\\ToObject\\HashClass</title>
<polygon fill="none" stroke="black" points="481,-436 405,-436 405,-400 481,-400 481,-436"/>
<text text-anchor="middle" x="443" y="-415.2" font-family="Courier,monospace" font-size="11.00">HashClass</text>
</g>
<!-- \\Devbin\\libs\\ToObject\\HashClass&#45;&gt;\\Devbin\\libs\\ToObject\\ObjectClass -->
<g id="edge4" class="edge"><title>\\Devbin\\libs\\ToObject\\HashClass&#45;&gt;\\Devbin\\libs\\ToObject\\ObjectClass</title>
<path fill="none" stroke="black" d="M404.695,-418C372.826,-418 326.555,-418 290.531,-418"/>
<polygon fill="none" stroke="black" points="290.186,-414.5 280.186,-418 290.186,-421.5 290.186,-414.5"/>
</g>
<!-- \\Devbin\\libs\\ToObject\\HashClass&#45;&gt;\\Iterator -->
<g id="edge5" class="edge"><title>\\Devbin\\libs\\ToObject\\HashClass&#45;&gt;\\Iterator</title>
<path fill="none" stroke="black" stroke-dasharray="1,5" d="M404.674,-414.174C388.728,-410.632 371.238,-403.87 360,-391 257.139,-273.202 392.552,-168.022 296,-45 291.641,-39.4457 285.889,-34.9995 279.67,-31.4501"/>
<polygon fill="none" stroke="black" points="280.853,-28.1319 270.334,-26.8669 277.769,-34.4155 280.853,-28.1319"/>
</g>
<!-- \\Countable -->
<g id="node13" class="node"><title>\\Countable</title>
<ellipse fill="none" stroke="black" cx="51" cy="-418" rx="50.8918" ry="18"/>
<text text-anchor="middle" x="51" y="-414.3" font-family="Times,serif" font-size="14.00" fill="gray">\Countable</text>
</g>
<!-- \\Devbin\\libs\\ToObject\\ObjectClass&#45;&gt;\\Countable -->
<g id="edge6" class="edge"><title>\\Devbin\\libs\\ToObject\\ObjectClass&#45;&gt;\\Countable</title>
<path fill="none" stroke="black" stroke-dasharray="1,5" d="M189.943,-418C166.55,-418 137.457,-418 112.029,-418"/>
<polygon fill="none" stroke="black" points="111.751,-414.5 101.751,-418 111.751,-421.5 111.751,-414.5"/>
</g>
<!-- \\Devbin\\libs\\ToObject\\StringClass -->
<g id="node5" class="node"><title>\\Devbin\\libs\\ToObject\\StringClass</title>
<polygon fill="none" stroke="black" points="487.5,-490 398.5,-490 398.5,-454 487.5,-454 487.5,-490"/>
<text text-anchor="middle" x="443" y="-469.2" font-family="Courier,monospace" font-size="11.00">StringClass</text>
</g>
<!-- \\Devbin\\libs\\ToObject\\StringClass&#45;&gt;\\Devbin\\libs\\ToObject\\ObjectClass -->
<g id="edge7" class="edge"><title>\\Devbin\\libs\\ToObject\\StringClass&#45;&gt;\\Devbin\\libs\\ToObject\\ObjectClass</title>
<path fill="none" stroke="black" d="M398.313,-460.548C366.71,-452.264 323.806,-441.017 290.045,-432.167"/>
<polygon fill="none" stroke="black" points="290.895,-428.772 280.335,-429.622 289.12,-435.543 290.895,-428.772"/>
</g>
<!-- \\Devbin\\libs\\ToObject\\StringClass&#45;&gt;\\ArrayAccess -->
<g id="edge8" class="edge"><title>\\Devbin\\libs\\ToObject\\StringClass&#45;&gt;\\ArrayAccess</title>
<path fill="none" stroke="black" stroke-dasharray="1,5" d="M398.382,-466.545C384.305,-462.685 369.817,-456.126 360,-445 262.019,-333.957 374.035,-243.863 296,-118 290.234,-108.701 281.862,-100.58 273.191,-93.8568"/>
<polygon fill="none" stroke="black" points="275.02,-90.8599 264.863,-87.8458 270.923,-96.5361 275.02,-90.8599"/>
</g>
<!-- \\Devbin\\libs\\ToObject\\IComparable -->
<g id="node6" class="node"><title>\\Devbin\\libs\\ToObject\\IComparable</title>
<polygon fill="none" stroke="black" points="279.5,-490 190.5,-490 190.5,-454 279.5,-454 279.5,-490"/>
<text text-anchor="middle" x="235" y="-469.2" font-family="Courier,monospace" font-size="11.00">IComparable</text>
</g>
<!-- \\Devbin\\libs\\ToObject\\StringClass&#45;&gt;\\Devbin\\libs\\ToObject\\IComparable -->
<g id="edge9" class="edge"><title>\\Devbin\\libs\\ToObject\\StringClass&#45;&gt;\\Devbin\\libs\\ToObject\\IComparable</title>
<path fill="none" stroke="black" stroke-dasharray="1,5" d="M398.313,-472C366.631,-472 323.593,-472 289.794,-472"/>
<polygon fill="none" stroke="black" points="289.624,-468.5 279.624,-472 289.624,-475.5 289.624,-468.5"/>
</g>
<!-- \\Devbin\\libs\\ToObject\\ArrayAccess_t -->
<g id="node7" class="node"><title>\\Devbin\\libs\\ToObject\\ArrayAccess_t</title>
<polygon fill="none" stroke="black" points="494,-328 392,-328 392,-292 494,-292 494,-328"/>
<text text-anchor="middle" x="443" y="-307.2" font-family="Courier,monospace" font-size="11.00">ArrayAccess_t</text>
</g>
<!-- \\Devbin\\libs\\ToObject\\Count_t -->
<g id="node8" class="node"><title>\\Devbin\\libs\\ToObject\\Count_t</title>
<polygon fill="none" stroke="black" points="474.5,-274 411.5,-274 411.5,-238 474.5,-238 474.5,-274"/>
<text text-anchor="middle" x="443" y="-253.2" font-family="Courier,monospace" font-size="11.00">Count_t</text>
</g>
<!-- \\Devbin\\libs\\ToObject\\Enumerable -->
<g id="node9" class="node"><title>\\Devbin\\libs\\ToObject\\Enumerable</title>
<polygon fill="none" stroke="black" points="484.5,-220 401.5,-220 401.5,-184 484.5,-184 484.5,-220"/>
<text text-anchor="middle" x="443" y="-199.2" font-family="Courier,monospace" font-size="11.00">Enumerable</text>
</g>
<!-- \\Devbin\\libs\\ToObject\\Iterator_t -->
<g id="node10" class="node"><title>\\Devbin\\libs\\ToObject\\Iterator_t</title>
<polygon fill="none" stroke="black" points="484.5,-166 401.5,-166 401.5,-130 484.5,-130 484.5,-166"/>
<text text-anchor="middle" x="443" y="-145.2" font-family="Courier,monospace" font-size="11.00">Iterator_t</text>
</g>
</g>
</svg>
